<?xml version="1.0" standalone="no"?>
<!DOCTYPE svg PUBLIC "-//W3C//DTD SVG 20010904//EN"
 "http://www.w3.org/TR/2001/REC-SVG-20010904/DTD/svg10.dtd">
<svg version="1.0" xmlns="http://www.w3.org/2000/svg"
 width="232.000000pt" height="96.000000pt" viewBox="0 0 232.000000 96.000000"
 preserveAspectRatio="xMidYMid meet">

<g transform="translate(0.000000,96.000000) scale(0.100000,-0.100000)"
fill="#000000" stroke="none">
<path d="M1170 456 c0 -21 67 -59 88 -51 15 6 15 8 -5 25 -13 10 -23 23 -23
29 0 6 -13 11 -30 11 -19 0 -30 -5 -30 -14z"/>
<path d="M1293 453 c16 -16 18 -16 34 0 16 16 15 17 -17 17 -32 0 -33 -1 -17
-17z"/>
<path d="M1035 439 c-8 -24 0 -34 32 -44 19 -5 25 -1 33 19 5 14 14 26 20 26
5 0 10 5 10 10 0 6 -20 10 -44 10 -37 0 -46 -4 -51 -21z"/>
<path d="M490 230 c0 -47 3 -60 15 -60 8 0 15 9 15 20 0 13 7 20 18 20 41 0
57 51 23 70 -11 5 -31 10 -45 10 -25 0 -26 -2 -26 -60z m60 15 c0 -8 -7 -15
-15 -15 -8 0 -15 7 -15 15 0 8 7 15 15 15 8 0 15 -7 15 -15z"/>
<path d="M600 230 c0 -33 4 -60 10 -60 6 0 10 9 10 20 0 11 4 20 10 20 5 0 14
-9 20 -20 6 -11 17 -20 26 -20 12 0 12 4 4 20 -7 14 -8 26 0 39 13 25 13 27
-6 45 -8 9 -29 16 -45 16 -29 0 -29 0 -29 -60z m60 20 c0 -5 -9 -10 -20 -10
-11 0 -20 5 -20 10 0 6 9 10 20 10 11 0 20 -4 20 -10z"/>
<path d="M707 284 c-4 -4 -7 -31 -7 -61 l0 -53 45 0 c25 0 45 5 45 10 0 6 -13
10 -30 10 -20 0 -30 5 -30 15 0 9 9 15 25 15 14 0 25 5 25 10 0 6 -11 10 -25
10 -34 0 -32 18 3 22 15 2 27 8 27 13 0 12 -67 19 -78 9z"/>
<path d="M807 283 c-4 -3 -7 -30 -7 -60 l0 -53 39 0 c22 0 43 5 46 11 11 17 8
79 -5 94 -13 15 -61 21 -73 8z m58 -58 c0 -20 -6 -31 -17 -33 -15 -3 -18 4
-18 33 0 29 3 36 18 33 11 -2 17 -13 17 -33z"/>
<path d="M917 283 c-4 -3 -7 -30 -7 -60 0 -40 4 -53 15 -53 8 0 15 9 15 19 0
14 8 21 28 23 30 3 42 38 22 64 -13 14 -61 19 -73 7z m61 -35 c-7 -19 -38 -22
-38 -4 0 10 9 16 21 16 12 0 19 -5 17 -12z"/>
<path d="M1032 278 c-7 -7 -12 -31 -12 -55 0 -36 4 -45 23 -52 43 -16 67 5 67
60 0 40 -14 59 -45 59 -12 0 -26 -5 -33 -12z m48 -54 c0 -23 -5 -34 -15 -34
-20 0 -30 46 -15 65 18 21 30 9 30 -31z"/>
<path d="M1130 230 c0 -33 4 -60 10 -60 6 0 10 14 10 30 0 17 4 30 9 30 5 0
14 -13 21 -30 21 -52 40 -38 40 30 0 33 -4 60 -10 60 -5 0 -10 -17 -10 -37
l-1 -38 -22 37 c-33 56 -47 49 -47 -22z"/>
<path d="M1240 275 c0 -8 7 -15 15 -15 11 0 15 -12 15 -45 0 -33 4 -45 15 -45
11 0 15 12 15 45 0 33 4 45 15 45 8 0 15 7 15 15 0 11 -12 15 -45 15 -33 0
-45 -4 -45 -15z"/>
<path d="M1366 282 c-2 -4 -13 -31 -24 -60 -16 -40 -17 -52 -7 -52 8 0 17 5
20 10 3 6 15 10 26 10 10 0 19 -4 19 -10 0 -5 7 -10 15 -10 19 0 19 -1 -6 65
-19 52 -31 65 -43 47z m24 -63 c0 -5 -4 -9 -10 -9 -5 0 -10 7 -10 16 0 8 5 12
10 9 6 -3 10 -10 10 -16z"/>
<path d="M1490 230 c0 -33 4 -60 10 -60 6 0 10 12 11 28 0 27 1 27 11 5 6 -13
15 -23 20 -23 5 0 13 10 18 23 8 21 9 21 9 -5 1 -18 6 -28 16 -28 12 0 15 13
15 60 0 71 -19 81 -43 23 l-15 -38 -15 38 c-23 55 -37 46 -37 -23z"/>
<path d="M1631 276 c-7 -8 -11 -34 -9 -58 3 -42 4 -43 37 -43 19 0 36 5 38 12
3 8 -6 11 -24 10 -25 -2 -28 1 -28 28 0 24 4 30 22 30 29 1 41 14 23 25 -22
14 -46 12 -59 -4z"/>
<path d="M1732 230 c-17 -49 -19 -60 -7 -60 8 0 15 5 15 10 0 6 11 10 25 10
14 0 25 -4 25 -10 0 -5 6 -10 14 -10 12 0 11 11 -6 60 -11 33 -25 60 -32 60
-7 0 -22 -27 -34 -60z m48 -12 c0 -5 -4 -8 -10 -8 -5 0 -10 10 -10 23 0 18 2
19 10 7 5 -8 10 -18 10 -22z"/>
<path d="M691 73 c-1 -57 14 -62 39 -12 22 43 21 66 -2 30 -17 -27 -26 -27
-31 2 -2 12 -5 3 -6 -20z"/>
<path d="M786 87 c-3 -12 -6 -32 -6 -45 0 -19 5 -23 23 -20 27 4 39 58 12 58
-9 0 -14 4 -10 9 3 5 1 12 -4 15 -5 3 -11 -4 -15 -17z m29 -26 c3 -5 1 -12 -5
-16 -5 -3 -10 1 -10 9 0 18 6 21 15 7z"/>
<path d="M1025 100 c-3 -5 1 -10 10 -10 9 0 13 5 10 10 -3 6 -8 10 -10 10 -2
0 -7 -4 -10 -10z"/>
<path d="M1256 102 c-2 -4 -7 -24 -11 -45 -7 -35 -6 -37 19 -37 14 0 26 5 26
10 0 6 -7 10 -15 10 -21 0 -19 20 3 21 10 0 12 3 5 6 -18 7 -16 23 2 23 8 0
15 5 15 10 0 12 -37 14 -44 2z"/>
<path d="M750 48 c0 -25 3 -29 10 -18 13 20 13 50 0 50 -5 0 -10 -15 -10 -32z"/>
<path d="M844 55 c-9 -35 3 -44 15 -12 5 14 16 27 23 30 7 3 3 6 -9 6 -16 1
-24 -6 -29 -24z"/>
<path d="M908 71 c11 -7 11 -9 -2 -14 -25 -10 -20 -39 7 -35 16 2 23 11 25 31
3 23 0 27 -20 27 -16 0 -19 -3 -10 -9z"/>
<path d="M955 70 c-4 -6 -4 -24 0 -40 6 -28 8 -29 23 -13 12 12 13 18 4 21
-18 6 -15 30 6 35 13 4 12 5 -5 6 -12 0 -25 -4 -28 -9z"/>
<path d="M1024 71 c19 -7 19 -8 -3 -14 -28 -7 -23 -31 7 -35 19 -3 22 1 22 27
0 26 -4 31 -22 30 -21 0 -22 -1 -4 -8z"/>
<path d="M1065 60 c-7 -24 1 -40 20 -40 17 0 38 36 30 50 -11 17 -43 11 -50
-10z m31 -17 c-10 -10 -19 5 -10 18 6 11 8 11 12 0 2 -7 1 -15 -2 -18z"/>
<path d="M1155 59 c-9 -26 8 -44 32 -34 17 7 17 8 -1 14 -19 7 -19 8 3 14 26
7 20 27 -9 27 -10 0 -22 -9 -25 -21z"/>
<path d="M1310 48 l1 -33 14 30 13 30 1 -28 c1 -34 21 -26 21 9 0 19 -5 24
-25 24 -22 0 -25 -4 -25 -32z"/>
<path d="M1377 73 c-23 -23 7 -64 34 -47 9 5 7 10 -7 15 -17 7 -17 8 -1 8 23
1 22 31 -1 31 -10 0 -22 -3 -25 -7z"/>
<path d="M1434 54 c-9 -35 3 -42 15 -10 12 31 31 35 31 6 0 -11 7 -20 16 -20
8 0 12 -5 9 -10 -4 -6 -11 -8 -16 -5 -5 4 -9 1 -9 -4 0 -6 7 -11 15 -11 17 0
35 30 35 59 0 16 -7 19 -45 19 -40 0 -46 -3 -51 -24z m73 -6 c-3 -8 -6 -5 -6
6 -1 11 2 17 5 13 3 -3 4 -12 1 -19z"/>
<path d="M1547 67 c-11 -29 -9 -53 4 -40 6 6 9 21 7 34 -3 21 -4 22 -11 6z"/>
<path d="M1594 71 c19 -7 19 -8 -3 -14 -28 -7 -23 -31 7 -35 19 -3 22 1 22 27
0 26 -4 31 -22 30 -21 0 -22 -1 -4 -8z"/>
<path d="M0 45 c0 -12 13 -15 55 -15 42 0 55 3 55 15 0 12 -13 15 -55 15 -42
0 -55 -3 -55 -15z"/>
<path d="M2220 45 c0 -11 12 -15 50 -15 38 0 50 4 50 15 0 11 -12 15 -50 15
-38 0 -50 -4 -50 -15z"/>
</g>
</svg>
